<svg xmlns="http://www.w3.org/2000/svg" viewBox="0 0 85 53.8"><style type="text/css"> .__2Zc29E3__st0{fill:#DB1F1F;} .__2Zc29E3__st1{fill:#BC1B23;} .__2Zc29E3__st2{fill:#FFBCA4;} .__2Zc29E3__st3{fill:#F9F2ED;} .__2Zc29E3__st4{opacity:0.6;} .__2Zc29E3__st5{fill:#EBD6C5;} .__2Zc29E3__st6{fill:#562600;} .__2Zc29E3__st7{fill:#F7EBE2;} .__2Zc29E3__st8{opacity:0.5;fill:#F97C64;enable-background:new ;} .__2Zc29E3__st9{fill:#F4E5D9;} .__2Zc29E3__st10{fill:#A4201E;} .__2Zc29E3__st11{fill:#FC8475;} .__2Zc29E3__st12{opacity:0.7;fill:#FFBCA4;enable-background:new ;} </style><path class="__2Zc29E3__st0 " d="M68.7,44.8c-2.1-2.5-4.4-4.5-7-5.7c-10.7-4.8-19.2,0-19.2,0s-8.5-4.8-19.2,0c-2.5,1.1-4.8,3.2-6.9,5.6 c-0.6,0.7,6.8,2.2,6.8,2.2l19.5-1.8l19.4,1.8C62.2,46.9,69.3,45.5,68.7,44.8z"></path><g><path class="__2Zc29E3__st1 " d="M79.6,41.4c-4.5-0.4-7.8,0.4-8.9,1.2c-0.3,0.2-0.5,0.6-0.7,1.2c-1,0.2-2.8,0.5-4,1.3c-1.4-1.1-2.8-2-4.3-2.5 c-10.7-4.2-19.2,0-19.2,0s-8.5-4.2-19.2,0c-1.5,0.6-3,1.5-4.4,2.6c-1.1-0.8-3-1.1-4-1.3c-0.2-0.6-0.4-1-0.7-1.2 c-1.1-0.8-4.4-1.6-8.9-1.2c-4.5,0.4-6,5.8-5.1,7.9c0.6,1.7,3.8,3.8,6.6,4.3c2.8,0.6,7.8-2.2,8.4-3.6c0.3-0.6,0.3-1.9,0.2-3.3l1.5,0 h6.2l20-1.3l18.9,1.3h5.9l1.4,0c-0.1,1.4,0,2.7,0.2,3.3c0.6,1.3,5.7,4.2,8.4,3.6c2.8-0.6,5.9-2.7,6.6-4.3 C85.6,47.2,84.2,41.8,79.6,41.4z"></path><path class="__2Zc29E3__st0 " d="M19.4,46.8c-0.9-1-3-1.5-4.2-1.7c-0.1-0.5-0.2-0.9-0.3-1.3c1.4,0.2,4.6,0.8,4.9,2.6c0,0.1,0.1,0.3,0.1,0.4 H19.4z"></path><path class="__2Zc29E3__st0 " d="M14.8,43.5c0.3,1.8,0.3,3.9,0,4.7c-0.6,1.3-5.7,4.2-8.4,3.6C3.9,51.3,1,49.5,0,47.9c0-2.5,1.6-6.2,5.4-6.5 c4.5-0.4,7.8,0.4,8.9,1.2C14.5,42.8,14.7,43.1,14.8,43.5z"></path></g><g><path class="__2Zc29E3__st0 " d="M65.6,46.8c0.9-1,3-1.5,4.2-1.7c0.1-0.5,0.2-0.9,0.3-1.3c-1.4,0.2-4.6,0.8-4.9,2.6c0,0.1-0.1,0.3-0.1,0.4H65.6 z"></path><path class="__2Zc29E3__st0 " d="M70.7,42.6c1.1-0.8,4.4-1.6,8.9-1.2c3.7,0.3,5.4,4,5.4,6.5c-1,1.6-3.8,3.4-6.3,3.9c-2.8,0.6-7.9-2.2-8.4-3.6 c-0.3-0.8-0.3-2.9,0-4.7C70.3,43.1,70.5,42.8,70.7,42.6z"></path></g><path class="__2Zc29E3__st1 " d="M56.2,2.9C50.6-0.7,43,0,42.4,0.1c-3.5,0-7.1,0.9-10.1,2.7c-5.9,3.6-6.4,14.3-6.4,14.3l16.5-1.2l10.9,0.8 l0.3,0.4l11.7,6.3l4-3.2C69.2,20.1,62.2,6.6,56.2,2.9z"></path><path class="__2Zc29E3__st2 " d="M57.3,32.8H27.7V19c0-2.3,1.8-4.1,4.1-4.1h21.4c2.3,0,4.1,1.8,4.1,4.1L57.3,32.8L57.3,32.8z"></path><path class="__2Zc29E3__st3 " d="M23.2,46.9h39c1.5-2.7,2.4-5.4,2.5-7.9c0.2-6.6-5.7-15.3-5.7-15.3l-1.6-0.9c0,0-0.1,9.3-4.2,9.8 c-4,0.5-8.4-1.8-10.6-1.8s-4.1,2.1-9.6,2S28,22.6,28,22.6s-1.3,0.9-1.7,1C26,23.8,20.7,37.1,22,43.2C22.3,44.5,22.7,45.7,23.2,46.9z "></path><g class="__2Zc29E3__st4 "><path class="__2Zc29E3__st5 " d="M23.2,46.9h4.4c-0.7-0.7-1.3-1.5-1.7-2.2c-4-6.4,2.1-22.1,2.1-22.1s-1.3,0.9-1.7,1C26,23.8,20.7,37.1,22,43.2 C22.3,44.5,22.7,45.7,23.2,46.9z"></path><path class="__2Zc29E3__st5 " d="M62.2,46.9c1.5-2.7,2.4-5.4,2.5-7.9c0-0.4,0-0.9,0-1.3c-0.9,3.1-2.9,6.3-5.3,9.2L62.2,46.9L62.2,46.9z"></path></g><path class="__2Zc29E3__st0 " d="M63.9,11.4c-2.3-3.4-5.1-6.9-7.7-8.6C50.6-0.7,43,0,42.4,0.1c0,0,0,0,0.1,0c-3.6,0-7.1,0.9-10.1,2.7 c-1.1,0.7-2.1,1.6-2.8,2.7c-1,3.7-1.1,7.2-1.1,7.2l13-1.2l13,1.2c0,0,0.6-4.8-1.6-8.5c-0.5-0.8-1.1-1.3-1.8-2 c0.4,0.2,0.8,0.4,1.2,0.7c2.1,1.3,3.5,3.4,4.5,5.6c2.1,1.1,4.2,2.3,5.1,3c0.3,0.3,0.7,0.5,1,0.8C63.5,12.9,64.4,12.1,63.9,11.4z M43.1,0.1c0,0-0.1,0-0.1,0C43,0.1,43.1,0.1,43.1,0.1z M44.4,0.2c-0.1,0-0.1,0-0.2,0C44.3,0.2,44.4,0.2,44.4,0.2z M43.8,0.2 c-0.1,0-0.1,0-0.2,0C43.7,0.2,43.7,0.2,43.8,0.2z M47.5,0.8C47.5,0.8,47.5,0.8,47.5,0.8C47.5,0.8,47.5,0.8,47.5,0.8z M44.9,0.3 c0.1,0,0.1,0,0.2,0C45,0.3,44.9,0.3,44.9,0.3z M45.5,0.4c0.1,0,0.1,0,0.2,0C45.6,0.4,45.6,0.4,45.5,0.4z M46.2,0.5c0,0,0.1,0,0.1,0 C46.3,0.5,46.2,0.5,46.2,0.5z M46.8,0.6C46.9,0.6,46.9,0.6,46.8,0.6C46.9,0.6,46.9,0.6,46.8,0.6z"></path><circle class="__2Zc29E3__st6 " cx="36.3" cy="25.7" r="1.8"></circle><circle class="__2Zc29E3__st7 " cx="36.7" cy="24.7" r="0.6"></circle><circle class="__2Zc29E3__st6 " cx="48.8" cy="25.7" r="1.8"></circle><circle class="__2Zc29E3__st7 " cx="48.3" cy="24.7" r="0.6"></circle><ellipse class="__2Zc29E3__st8 " cx="34.3" cy="29.7" rx="2.3" ry="0.9"></ellipse><ellipse class="__2Zc29E3__st8 " cx="50.7" cy="29.7" rx="2.3" ry="0.9"></ellipse><path class="__2Zc29E3__st9 " d="M52.4,11.2h-9.9h-9.9c-4.1,0-7.4,3.5-7.4,7.8v3.6c0,0.8,0.8,1.3,1.5,0.8l1-0.7c1.9-1.3,4.1-2,6.3-2.1l8.5-0.2 l8.5,0.2c2.2,0,4.4,0.8,6.3,2.1l1,0.7c0.6,0.4,1.5,0,1.5-0.8V19C59.7,14.7,56.4,11.2,52.4,11.2z"></path><path class="__2Zc29E3__st3 " d="M52.4,11.2h-9.9h-9.9c-2.4,0-4.6,1.2-5.9,3.2c-0.3,0.9-0.5,1.8-0.5,2.7v3.4c0,0.7,0.8,1.2,1.4,0.8l0.9-0.6 c1.8-1.2,3.8-1.9,5.9-2l8-0.2l8,0.2c2.1,0,4.2,0.7,5.9,2l0.9,0.6c0.6,0.4,1.4,0,1.4-0.8v-3.4c0-1-0.2-1.9-0.5-2.7 C56.9,12.5,54.8,11.2,52.4,11.2z"></path><path class="__2Zc29E3__st10 " d="M38.4,37.3c0,0,2.7,2.8,5.8,1.9c3.1-0.9,3.9-2.1,3.9-2.1l-5.6-2.6L38.4,37.3z"></path><path class="__2Zc29E3__st5 " d="M40.4,33.2c0,0.7-0.4,1.3-0.4,1.3l0-0.9c0,0-0.7,1.1-3.2,2.2C34.5,36.8,30,36,30,36s1.3,1.7,4.7,1.7 c4.3,0,7.7-2.1,7.7-2.1s3.5,2.1,7.7,2.1c3.5,0,4.7-1.7,4.7-1.7s-4.5,0.7-6.7-0.3c-2.5-1.1-3.2-2.2-3.2-2.2l0,0.9 c0,0-0.4-0.5-0.4-1.3c0-0.4,1.2-1.7,1.2-1.7l-0.1-0.1c-1.2-0.4-2.3-0.6-3.1-0.6c-1,0-2,0.4-3.2,0.9C39.6,32,40.4,32.9,40.4,33.2z"></path><ellipse class="__2Zc29E3__st11 " cx="42.5" cy="30.4" rx="3.3" ry="2.1"></ellipse><ellipse class="__2Zc29E3__st12 " cx="42.5" cy="29.6" rx="2.4" ry="0.9"></ellipse><path class="__2Zc29E3__st3 " d="M38.9,19.7c-0.8-0.5-3.9-0.2-5.5,0.2c-1.1,0.3-1.3,1.1-1.3,1.6c0,0.3,0.3,0.6,0.6,0.5c0.1,0,0.3-0.1,0.5-0.2 c1-0.5,4.9-0.5,5.6-0.6C39.6,21,39.7,20.2,38.9,19.7z"></path><path class="__2Zc29E3__st3 " d="M46.2,19.7c0.8-0.5,3.9-0.2,5.5,0.2c1.1,0.3,1.3,1.1,1.3,1.6c0,0.3-0.3,0.6-0.6,0.5c-0.1,0-0.3-0.1-0.5-0.2 c-1-0.5-4.9-0.5-5.6-0.6C45.4,21,45.4,20.2,46.2,19.7z"></path><circle class="__2Zc29E3__st9 " cx="67.4" cy="22.2" r="4.8"></circle><circle class="__2Zc29E3__st3 " cx="67.6" cy="20.9" r="3.5"></circle></svg>
